<svg xmlns="http://www.w3.org/2000/svg" id="Layer_1" data-name="Layer 1" viewBox="0 0 742.4 829.9"><defs><style>.cls-1{fill:#fff}</style></defs><path d="m643 722 54 6q23 2 45 6v-2c-31-6-63-10-94-13-13-1-13-1-13-14 0-3 1-4 4-4l60 6h5v-1l-4-1-59-7c-5-1-6-2-6-7l-2-49-2-76-3-28 1 28 2 96 3 73c0 5-1 7-6 9-14 5-28 3-42 3-2 0-3-3-4-5 0 6-4 7-9 9a720 720 0 0 1-113 24c-40 5-80 6-120 3l-67-6c-6 0-11-2-16-3-3 0-4-2-4-5l1-28-1-10h-1v5l-1 34c0 3-1 5-4 6a78 78 0 0 1-70 1c-5-2-8-6-8-12l4-211 4-52a78 78 0 0 1 3-14c3-12 10-22 21-28l78-45c19-11 38-22 54-36a121 121 0 0 0 10-10 33 33 0 0 0 9-20c1-20 2-41-8-60-7-15-19-26-32-36-18-14-34-29-47-48-15-24-25-51-24-80 0-40 18-70 51-91 30-19 63-28 99-26 17 0 35 2 49 14 10 8 18 18 26 28a183 183 0 0 1 14 17l1 7v8a33 33 0 0 0 11 18l5 3c6-1 8 3 10 7 10 20 20 40 24 61 4 20 8 40 5 60-2 13-7 23-19 29-8 4-17 9-23 15a45 45 0 0 0-14 39c3 30 19 53 41 71 14 11 31 18 46 26 14 7 28 13 35 27 6 10 10 21 13 32l12 66 1 7 1-10a410 410 0 0 0-14-73c-6-19-15-35-33-44l-35-18c-27-13-48-33-59-63-4-11-6-22-5-33 2-18 11-29 27-36 13-5 24-13 27-27a73 73 0 0 0 3-16c0-30-5-59-17-87a393 393 0 0 0-75-112 87 87 0 0 0-51-19c-40-2-77 6-110 29-25 17-42 40-47 70-6 33 2 65 18 94 13 23 31 40 51 56 11 8 21 17 29 29 11 18 13 38 12 59-1 14-6 24-16 32l-27 21-84 49-19 11c-21 10-29 28-30 49l-5 101-1 97a5 5 0 0 1-3 3l-25 4-41 7-7 1 2 1 68-10 5 2c2 5 0 14-2 15a13 13 0 0 1-2 0l-31 4-74 10c-12 1-24 4-35 6l-8 3 1 2 4-1 39-7 35-5 69-9c4 0 5 1 5 4v11c0 4-2 6-6 6l-27 3-75 9-39 7a66 66 0 0 0-16 6c-7 3-7 10-1 14a12 12 0 0 0 4 2c9 3 18 7 28 9l54 7 71 7a100 100 0 0 0 10 0v-1l-11-1-72-8-53-7c-10-2-20-6-29-10-5-2-5-7 0-10a14 14 0 0 1 4-2c10-3 21-7 32-9l47-6 74-7c1-1 3 0 4 1 2 3 0 11-4 13a58 58 0 0 0-7 3c-8 5-8 13 0 17a52 52 0 0 0 11 5c14 5 28 6 43 6a8 8 0 0 0 2 0l-5-2-32-4c-7-1-13-4-19-7-4-2-5-7-2-10l12-8 1 1c-1 8 4 10 9 13 20 9 41 11 62 3 11-5 21-5 33-4 35 4 70 7 105 8 63 3 125-8 186-25 16-5 32-8 49-8 6 1 12-2 18-3 4-1 8-3 8-10l21 8c3 1 6 5 6 7s-3 6-6 7a114 114 0 0 1-23 7l-26 2h24c9-1 18-4 26-7 4-1 7-4 7-9s-3-8-7-9a152 152 0 0 0-18-6c-5-1-6-3-5-12 1-5 5-2 7-2Z" class="cls-1"/><path d="m597 767-10 3c-28 8-56 16-85 22-28 7-57 9-86 9l-80-2-74-8a6 6 0 0 1-4-2l20 2c60 7 120 11 180 6 30-3 60-10 89-18l47-13a18 18 0 0 1 2-1Zm132-16c6 1 10 5 13 9 1 1 0 6-2 7a55 55 0 0 1-13 8c-12 6-39 10-54 9l28-5 21-7a36 36 0 0 0 10-5c5-4 5-8 0-13l-3-3Zm-352 65c-6 3-110-6-116-10Zm-245-22c-16-2-31-3-45-10-7-4-8-10-1-13 9-6 21-8 32-10v1l-6 3-17 4a23 23 0 0 0-7 3c-4 3-4 7 1 9l19 7 13 2 11 4Zm351 30c-9 4-67 8-76 5Zm177-50 20-9c8-4 9-9 6-16 6 4 7 9 2 14-8 8-18 10-28 11Zm-515-12-9 6c-7 4-7 10 1 15l11 7c-6-1-12-4-17-8-3-4-3-10 1-13l12-8Zm104 27c-3 5-20 11-25 9Zm326 12 24-7 1 2-24 7-1-2Zm-32-4 21-6 1 2-21 6-1-2Z" class="cls-1"/><path d="m628 538 1 28 2 96 3 73c0 5-1 8-6 9-14 5-28 4-42 3-2 0-3-3-4-5h-1c1 6-3 7-8 9a720 720 0 0 1-113 24c-40 5-80 6-120 3l-67-6c-6 0-11-2-16-3-3 0-4-2-4-5l1-28-1-10h-1v5l-1 34c0 3-1 5-4 6a78 78 0 0 1-70 1c-5-2-8-6-8-12l4-211 4-52a78 78 0 0 1 3-14c3-12 10-22 21-28l78-45c19-11 38-22 54-36a121 121 0 0 0 10-10 33 33 0 0 0 9-20c1-20 2-41-8-60-7-15-19-26-32-36-18-14-34-29-47-48-15-24-25-51-24-80 0-40 18-70 51-91 30-19 63-28 99-26 17 0 35 2 49 14 10 8 18 18 26 28a183 183 0 0 1 14 17l1 7v8a33 33 0 0 0 11 18l5 3c6-1 8 3 10 7 10 20 20 40 24 61 4 20 8 40 5 60-2 13-7 23-19 29-8 4-17 9-23 15a45 45 0 0 0-14 39c3 30 19 53 41 71 14 11 31 18 46 26 14 7 28 13 35 27 6 10 10 21 13 32l12 66 1 7ZM415 91a38 38 0 0 0 17 28c2 1 6 2 8 1s4-5 4-8c-1-12-7-22-17-29-7-4-12-1-12 8Z"/><path d="M415 91c0-9 5-12 12-8 10 7 16 17 17 29 0 3-2 7-4 8s-6 0-8-1a38 38 0 0 1-17-28Z" class="cls-1"/></svg>