<?xml version="1.0" encoding="utf-8"?>
<!-- Generator: Adobe Illustrator 21.0.0, SVG Export Plug-In . SVG Version: 6.00 Build 0)  -->
<svg version="1.1" id="Layer_1" xmlns="http://www.w3.org/2000/svg" xmlns:xlink="http://www.w3.org/1999/xlink" x="0px" y="0px"
	 viewBox="0 0 512 512" style="enable-background:new 0 0 512 512;" xml:space="preserve">
<g>
	<path d="M0,91.4v329.1h512V91.4H0z M36.6,128h438.9v256H36.6V128z M73.1,164.6v182.9H128c30.2,0,54.9-24.6,54.9-54.9v-73.1
		c0-30.2-24.6-54.9-54.9-54.9H73.1z M256,164.6c-20.2,0-36.6,16.4-36.6,36.6v109.7c0,20.2,16.4,36.6,36.6,36.6h36.6v-36.6H256v-36.6
		h36.6v-36.6H256v-36.6h36.6v-36.6H256z M323.5,164.6l38.1,165c2.4,10.4,11.7,17.8,22.4,17.8s20-7.4,22.4-17.8l38.1-165H407L384,264
		l-23-99.5H323.5z M109.7,201.1H128c10.1,0,18.3,8.2,18.3,18.3v73.1c0,10.1-8.2,18.3-18.3,18.3h-18.3V201.1z"/>
</g>
</svg>
