<svg id="regular" enable-background="new 0 0 24 24" height="512" viewBox="0 0 24 24" width="512" xmlns="http://www.w3.org/2000/svg"><path d="m17.5 14.156c4.629 0 4.629-7.125 0-7.125h-7.5v-3.469c0-4.71-7-4.714-7 0v11.25c0 5.066 4.037 9.188 9 9.188h5.5c4.629 0 4.629-7.125 0-7.125h-5.5c-1.103 0-2-.925-2-2.062v-.656h7.5zm-5.5 4.219h5.5c2.647 0 2.646 4.125 0 4.125h-5.5c-4.136 0-7.5-3.449-7.5-7.688v-11.25c0-2.731 4-2.73 4 0v4.219c0 .414.336.75.75.75h8.25c2.647 0 2.646 4.125 0 4.125h-8.25c-.414 0-.75.336-.75.75v1.406c0 1.965 1.57 3.563 3.5 3.563z"/></svg>